<?xml version="1.0" encoding="UTF-8"?>
<svg id="Capa_2" data-name="Capa 2" xmlns="http://www.w3.org/2000/svg" viewBox="0 0 308.06 215.7">
  <defs>
    <style>
      .cls-1, .cls-2 {
        fill: #fff;
      }

      .cls-2 {
        fill-rule: evenodd;
      }

      .cls-3 {
        fill: #ffcd00;
      }
    </style>
  </defs>
  <g id="Capa_1-2" data-name="Capa 1">
    <path class="cls-2" d="M41.46,47.19h11.81c3.26,0,5.94-2.71,5.94-5.97v-23.71c0-3.26-2.67-5.93-5.94-5.93h-11.81c-3.26,0-5.94,2.67-5.94,5.93v23.71c0,3.25,2.67,5.97,5.94,5.97h0ZM222.28,165.14c0,21.43-17.52,38.98-39.07,38.98s-38.94-17.55-38.94-38.98,17.47-39.08,38.94-39.08,39.07,17.51,39.07,39.08h0ZM212.53,165.14c0-16.19-13.15-29.33-29.32-29.33s-29.2,13.14-29.2,29.33,13.15,29.15,29.2,29.15,29.32-13.1,29.32-29.15h0ZM203.98,155.58c-1.92-1.92-5.05-1.92-6.94,0l-17.23,17.19-10.32-10.37c-1.88-1.89-5.04-1.89-6.98,0-1.87,1.96-1.87,5.06,0,6.99l13.84,13.82c1.06.88,2.25,1.3,3.46,1.3,1.27,0,2.5-.42,3.4-1.3l20.77-20.81c1.93-1.89,1.93-4.92,0-6.82h0ZM97.39,133.79c9.89,0,17.84,7.97,17.84,17.71s-7.95,17.88-17.84,17.88-17.74-7.97-17.74-17.88,8-17.71,17.74-17.71h0ZM46.19,133.79c9.87,0,17.84,7.97,17.84,17.71s-7.97,17.88-17.84,17.88-17.85-7.97-17.85-17.88,7.96-17.71,17.85-17.71h0ZM46.19,87.7c9.87,0,17.84,8.02,17.84,17.77s-7.97,17.85-17.84,17.85-17.85-7.97-17.85-17.85,7.96-17.77,17.85-17.77h0ZM97.39,87.7c9.89,0,17.84,8.02,17.84,17.77s-7.95,17.85-17.84,17.85-17.74-7.97-17.74-17.85,8-17.77,17.74-17.77h0ZM148.7,87.7c9.78,0,17.74,8.02,17.74,17.77s-7.96,17.85-17.74,17.85-17.81-7.97-17.81-17.85,7.95-17.77,17.81-17.77h0ZM189.46,58.94v59.11c-1.99-.34-4.1-.47-6.25-.47-1.79,0-3.71.13-5.48.33v-35.23c0-22.7-133.35-11.81-154.14-11.81-6.52,0-11.78,5.28-11.78,11.81v94.82c0,6.47,5.25,11.78,11.78,11.78h118.85c2.71,4.48,6.08,8.52,10.02,11.87H23.58c-13.01,0-23.58-10.62-23.58-23.65V58.94c0-12.98,10.58-23.65,23.58-23.65h5.97v5.94c0,6.49,5.41,11.78,11.91,11.78h11.81c6.51,0,11.9-5.28,11.9-11.78v-5.94h59.19v5.94c0,6.49,5.25,11.78,11.78,11.78h11.89c6.54,0,11.81-5.28,11.81-11.78v-5.94h5.95c13.14,0,23.67,10.66,23.67,23.65h0ZM136.14,47.19h11.89c3.28,0,5.97-2.71,5.97-5.97v-23.71c0-3.26-2.7-5.93-5.97-5.93h-11.89c-3.27,0-5.84,2.67-5.84,5.93v23.71c0,3.25,2.57,5.97,5.84,5.97h0Z"/>
    <g>
      <line class="cls-3" x1="305.53" y1="214.15" x2="305.53" y2="1.55"/>
      <path class="cls-1" d="M308.06,213.85c0-23.96,0-47.91,0-71.87,0-38.17,0-76.34,0-114.5,0-8.74,0-17.48,0-26.22,0-2.21-5.06-1.19-5.06.58,0,23.96,0,47.91,0,71.87,0,38.17,0,76.34,0,114.5,0,8.74,0,17.48,0,26.22,0,2.21,5.06,1.19,5.06-.58h0Z"/>
    </g>
  </g>
</svg>