<?xml version="1.0" encoding="UTF-8"?>
<svg id="Capa_2" data-name="Capa 2" xmlns="http://www.w3.org/2000/svg" viewBox="0 0 611.11 129.19">
  <defs>
    <style>
      .cls-1 {
        fill-rule: evenodd;
      }

      .cls-1, .cls-2 {
        fill: #ffcd00;
      }

      .cls-3 {
        fill: #1f2480;
      }
    </style>
  </defs>
  <g id="Capa_1-2" data-name="Capa 1">
    <g>
      <g>
        <path class="cls-2" d="M605.11,39.55c-3.3,0-5.99-2.74-5.99-6.12s2.69-6.12,5.99-6.12,6,2.75,6,6.12-2.69,6.12-6,6.12M605.11,28.03c-2.9,0-5.27,2.42-5.27,5.4s2.36,5.4,5.27,5.4,5.27-2.42,5.27-5.4-2.37-5.4-5.27-5.4"/>
        <path class="cls-1" d="M602.73,36.49v-6.14h2.72c.55,0,.97.05,1.25.16.29.11.51.31.69.58.17.28.25.59.25.93,0,.44-.14.8-.42,1.1-.28.3-.72.49-1.31.57.22.1.38.2.49.31.24.22.46.49.68.81l1.06,1.67h-1.02l-.81-1.28c-.24-.36-.43-.65-.59-.84-.16-.2-.3-.33-.42-.41-.12-.08-.24-.13-.37-.16-.09-.02-.24-.03-.45-.03h-.94v2.73h-.81ZM603.54,33.06h1.75c.37,0,.66-.03.87-.11.21-.08.37-.2.48-.37.11-.17.16-.35.16-.55,0-.29-.1-.53-.31-.72-.21-.19-.54-.28-1-.28h-1.95v2.03Z"/>
        <path class="cls-3" d="M10.81,9.61C17.08,3.2,25.05,0,34.72,0c12.95,0,22.42,4.29,28.41,12.88,3.31,4.82,5.08,9.66,5.33,14.51h-16.26c-1.03-3.73-2.36-6.54-3.98-8.44-2.9-3.38-7.19-5.07-12.87-5.07s-10.36,2.38-13.7,7.15c-3.34,4.77-5.01,11.51-5.01,20.24s1.76,15.26,5.29,19.61c3.53,4.35,8.01,6.52,13.45,6.52s9.83-1.86,12.75-5.59c1.62-2,2.96-5.01,4.03-9.03h16.15c-1.39,8.48-4.95,15.38-10.68,20.69-5.73,5.31-13.06,7.97-22.01,7.97-11.07,0-19.77-3.59-26.11-10.77C3.17,63.46,0,53.57,0,41.01c0-13.58,3.6-24.05,10.81-31.4Z"/>
        <path class="cls-3" d="M105.7,20.4c.19.02.62.04,1.29.08v15.41c-.95-.11-1.79-.18-2.53-.21-.74-.04-1.34-.05-1.79-.05-6.05,0-10.12,1.97-12.19,5.91-1.16,2.22-1.74,5.63-1.74,10.24v27.5h-15.15V21.75h14.36v10.03c2.32-3.83,4.35-6.46,6.07-7.86,2.82-2.36,6.47-3.54,10.98-3.54.28,0,.52,0,.71.03Z"/>
        <path class="cls-3" d="M146.81,22.91c4.01,1.8,7.33,4.64,9.94,8.51,2.36,3.42,3.88,7.38,4.58,11.89.4,2.64.57,6.45.49,11.42h-41.9c.23,5.77,2.24,9.82,6.02,12.14,2.3,1.44,5.06,2.16,8.29,2.16,3.43,0,6.21-.88,8.35-2.64,1.17-.95,2.2-2.27,3.1-3.96h15.36c-.4,3.41-2.26,6.88-5.58,10.4-5.15,5.59-12.37,8.39-21.64,8.39-7.66,0-14.41-2.36-20.26-7.08-5.85-4.72-8.78-12.4-8.78-23.03,0-9.97,2.64-17.61,7.93-22.93,5.28-5.32,12.14-7.98,20.57-7.98,5.01,0,9.52.9,13.53,2.7ZM124.31,35.91c-2.13,2.19-3.46,5.16-4.01,8.9h25.91c-.27-3.99-1.61-7.02-4.01-9.09-2.4-2.07-5.37-3.1-8.92-3.1-3.86,0-6.85,1.1-8.98,3.29Z"/>
        <path class="cls-3" d="M193.46,22.67c2.71,1.53,4.91,3.65,6.6,6.36V1.59h15.25v77.69h-14.62v-7.97c-2.15,3.41-4.59,5.89-7.34,7.44-2.74,1.55-6.16,2.32-10.24,2.32-6.72,0-12.38-2.72-16.97-8.15-4.59-5.44-6.89-12.41-6.89-20.93,0-9.82,2.26-17.54,6.78-23.17,4.52-5.63,10.56-8.44,18.13-8.44,3.48,0,6.58.77,9.29,2.3ZM197.15,63.65c2.22-3.17,3.33-7.27,3.33-12.3,0-7.04-1.78-12.07-5.33-15.09-2.18-1.83-4.72-2.75-7.6-2.75-4.4,0-7.63,1.66-9.69,4.99-2.06,3.33-3.09,7.45-3.09,12.38,0,5.31,1.05,9.56,3.14,12.75,2.09,3.19,5.27,4.78,9.53,4.78s7.49-1.58,9.71-4.75Z"/>
        <path class="cls-3" d="M237.96,14.89h-15.25V1h15.25v13.88ZM222.71,21.75h15.25v57.53h-15.25V21.75Z"/>
        <path class="cls-2" d="M283.53,22.91c4.01,1.8,7.33,4.64,9.94,8.51,2.36,3.42,3.88,7.38,4.59,11.89.4,2.64.57,6.45.5,11.42h-41.9c.23,5.77,2.24,9.82,6.02,12.14,2.3,1.44,5.06,2.16,8.29,2.16,3.43,0,6.21-.88,8.35-2.64,1.17-.95,2.2-2.27,3.1-3.96h15.36c-.4,3.41-2.26,6.88-5.58,10.4-5.15,5.59-12.37,8.39-21.64,8.39-7.66,0-14.41-2.36-20.26-7.08-5.85-4.72-8.78-12.4-8.78-23.03,0-9.97,2.64-17.61,7.93-22.93,5.28-5.32,12.14-7.98,20.57-7.98,5.01,0,9.52.9,13.53,2.7ZM261.03,35.91c-2.13,2.19-3.46,5.16-4.01,8.9h25.92c-.27-3.99-1.61-7.02-4.01-9.09-2.4-2.07-5.37-3.1-8.92-3.1-3.86,0-6.85,1.1-8.98,3.29Z"/>
        <path class="cls-2" d="M293.95,79.28l19.63-29.14-18.79-28.29h18.42l9.61,16.66,9.39-16.66h17.89l-18.9,28.03,19.63,29.4h-18.74l-9.9-17.3-10,17.3h-18.26Z"/>
        <path class="cls-2" d="M401.68,27.92c4.69,4.96,7.04,12.24,7.04,21.85,0,10.13-2.29,17.86-6.88,23.17-4.59,5.31-10.49,7.97-17.71,7.97-4.6,0-8.43-1.14-11.48-3.43-1.66-1.27-3.29-3.11-4.89-5.54v21.86h-14.88V21.75h14.41v8.5c1.63-2.5,3.36-4.47,5.21-5.91,3.36-2.57,7.37-3.85,12.01-3.85,6.76,0,12.49,2.48,17.18,7.44ZM390.14,38.74c-2.04-3.41-5.36-5.12-9.94-5.12-5.51,0-9.3,2.59-11.36,7.76-1.07,2.75-1.6,6.23-1.6,10.45,0,6.69,1.79,11.38,5.38,14.09,2.13,1.58,4.66,2.37,7.57,2.37,4.23,0,7.46-1.62,9.68-4.86,2.22-3.24,3.33-7.55,3.33-12.93,0-4.43-1.02-8.36-3.07-11.77Z"/>
        <path class="cls-2" d="M444.81,20.4c.19.02.62.04,1.29.08v15.41c-.95-.11-1.79-.18-2.53-.21s-1.34-.05-1.79-.05c-6.05,0-10.12,1.97-12.19,5.91-1.16,2.22-1.74,5.63-1.74,10.24v27.5h-15.15V21.75h14.36v10.03c2.32-3.83,4.35-6.46,6.07-7.86,2.81-2.36,6.47-3.54,10.98-3.54.28,0,.52,0,.71.03Z"/>
        <path class="cls-2" d="M485.91,22.91c4.01,1.8,7.33,4.64,9.94,8.51,2.36,3.42,3.88,7.38,4.58,11.89.4,2.64.57,6.45.5,11.42h-41.9c.23,5.77,2.24,9.82,6.02,12.14,2.3,1.44,5.06,2.16,8.29,2.16,3.43,0,6.21-.88,8.35-2.64,1.17-.95,2.15-3.28,2.04-5.44h15.36c-.4,3.41-1.2,8.36-4.52,11.88-5.15,5.59-12.37,8.39-21.64,8.39-7.66,0-14.41-2.36-20.26-7.08-5.85-4.72-8.78-12.4-8.78-23.03,0-9.97,2.64-17.61,7.93-22.93,5.28-5.32,12.14-7.98,20.57-7.98,5.01,0,9.52.9,13.53,2.7ZM463.41,35.91c-2.12,2.19-3.46,5.16-4.01,8.9h25.91c-.27-3.99-1.61-7.02-4.01-9.09-2.4-2.07-5.37-3.1-8.92-3.1-3.86,0-6.85,1.1-8.98,3.29Z"/>
        <path class="cls-2" d="M512.82,60.91c.32,2.67,1.01,4.57,2.07,5.7,1.87,2,5.34,3.01,10.39,3.01,2.97,0,5.33-.44,7.08-1.32,1.75-.88,2.63-2.2,2.63-3.96s-.7-2.97-2.11-3.85c-1.41-.88-6.66-2.39-15.74-4.54-6.54-1.62-11.14-3.64-13.82-6.07-2.68-2.39-4.01-5.84-4.01-10.34,0-5.31,2.09-9.88,6.27-13.7,4.18-3.82,10.06-5.73,17.64-5.73s13.06,1.43,17.59,4.3c4.53,2.87,7.13,7.82,7.8,14.86h-15.04c-.21-1.93-.76-3.47-1.64-4.59-1.66-2.04-4.48-3.06-8.47-3.06-3.28,0-5.62.51-7.01,1.53-1.39,1.02-2.09,2.22-2.09,3.59,0,1.72.74,2.97,2.22,3.75,1.48.81,6.72,2.2,15.71,4.17,5.99,1.41,10.48,3.54,13.47,6.39,2.96,2.89,4.43,6.49,4.43,10.82,0,5.7-2.12,10.35-6.37,13.96-4.25,3.61-10.82,5.41-19.7,5.41s-15.75-1.91-20.07-5.73c-4.32-3.82-6.48-8.68-6.48-14.59h15.25Z"/>
        <path class="cls-2" d="M560.86,60.91c.32,2.67,1.01,4.57,2.07,5.7,1.87,2,5.34,3.01,10.39,3.01,2.97,0,5.33-.44,7.08-1.32,1.75-.88,2.63-2.2,2.63-3.96s-.7-2.97-2.11-3.85c-1.41-.88-6.66-2.39-15.74-4.54-6.54-1.62-11.14-3.64-13.82-6.07-2.68-2.39-4.01-5.84-4.01-10.34,0-5.31,2.09-9.88,6.27-13.7,4.18-3.82,10.06-5.73,17.64-5.73s13.06,1.43,17.59,4.3c4.53,2.87,7.13,7.82,7.8,14.86h-15.04c-.21-1.93-.76-3.47-1.64-4.59-1.66-2.04-4.48-3.06-8.47-3.06-3.28,0-5.62.51-7.01,1.53-1.39,1.02-2.09,2.22-2.09,3.59,0,1.72.74,2.97,2.22,3.75,1.48.81,6.72,2.2,15.71,4.17,5.99,1.41,10.48,3.54,13.47,6.39,2.96,2.89,4.43,6.49,4.43,10.82,0,5.7-2.12,10.35-6.37,13.96-4.25,3.61-10.82,5.41-19.7,5.41s-15.75-1.91-20.07-5.73c-4.32-3.82-6.48-8.68-6.48-14.59h15.25Z"/>
      </g>
      <g>
        <path class="cls-3" d="M234.47,128.83v-21.18h-8.33v-3.95h21.33v3.95h-8.33v21.18h-4.67Z"/>
        <g>
          <path class="cls-3" d="M160.83,128.83l11.31-25.13h4.6l11.34,25.13h-4.88l-9.73-22.66h1.87l-9.69,22.66h-4.81ZM166.03,123.01l1.26-3.66h13.57l1.26,3.66h-16.09Z"/>
          <path class="cls-3" d="M206.93,129.19c-3.45,0-6.15-.97-8.1-2.91-1.95-1.94-2.93-4.74-2.93-8.4v-14.18h4.67v14c0,2.58.56,4.46,1.67,5.64,1.11,1.17,2.69,1.76,4.72,1.76s3.6-.59,4.7-1.76c1.1-1.17,1.65-3.05,1.65-5.64v-14h4.6v14.18c0,3.66-.98,6.46-2.93,8.4-1.95,1.94-4.64,2.91-8.06,2.91Z"/>
          <path class="cls-3" d="M267.79,129.19c-1.96,0-3.77-.32-5.42-.97-1.65-.65-3.09-1.55-4.31-2.71-1.22-1.16-2.17-2.52-2.84-4.09-.67-1.57-1-3.28-1-5.15s.34-3.58,1-5.15,1.62-2.93,2.84-4.09c1.22-1.16,2.66-2.06,4.31-2.71,1.65-.65,3.45-.97,5.39-.97s3.76.32,5.4.97c1.64.65,3.07,1.55,4.29,2.71,1.22,1.16,2.17,2.53,2.84,4.09.67,1.57,1,3.28,1,5.15s-.34,3.59-1,5.17c-.67,1.58-1.62,2.94-2.84,4.09-1.22,1.15-2.65,2.05-4.29,2.69s-3.43.97-5.37.97ZM267.75,125.09c1.27,0,2.44-.21,3.52-.65,1.08-.43,2.01-1.05,2.8-1.85.79-.8,1.41-1.74,1.85-2.8.44-1.07.66-2.24.66-3.54s-.22-2.47-.66-3.54c-.44-1.07-1.06-2-1.85-2.8-.79-.8-1.72-1.42-2.8-1.85-1.08-.43-2.25-.65-3.52-.65s-2.44.22-3.5.65c-1.06.43-2,1.05-2.8,1.85s-1.42,1.74-1.87,2.8c-.44,1.07-.66,2.24-.66,3.54s.22,2.44.66,3.52c.44,1.08,1.06,2.02,1.85,2.82.79.8,1.72,1.42,2.8,1.85,1.08.43,2.25.65,3.52.65Z"/>
          <path class="cls-3" d="M291.63,128.83v-25.13h3.84l10.99,18.35h-2.01l10.81-18.35h3.84l.04,25.13h-4.42l-.04-18.2h.93l-9.19,15.33h-2.08l-9.33-15.33h1.08v18.2h-4.45Z"/>
          <path class="cls-3" d="M343.08,129.19c-1.96,0-3.77-.32-5.42-.97-1.65-.65-3.09-1.55-4.31-2.71-1.22-1.16-2.17-2.52-2.84-4.09-.67-1.57-1-3.28-1-5.15s.34-3.58,1-5.15c.67-1.57,1.62-2.93,2.84-4.09,1.22-1.16,2.66-2.06,4.31-2.71,1.65-.65,3.45-.97,5.39-.97s3.76.32,5.4.97c1.64.65,3.07,1.55,4.29,2.71,1.22,1.16,2.17,2.53,2.84,4.09.67,1.57,1,3.28,1,5.15s-.34,3.59-1,5.17c-.67,1.58-1.62,2.94-2.84,4.09s-2.65,2.05-4.29,2.69-3.43.97-5.37.97ZM343.04,125.09c1.27,0,2.44-.21,3.52-.65,1.08-.43,2.01-1.05,2.8-1.85.79-.8,1.41-1.74,1.85-2.8.44-1.07.66-2.24.66-3.54s-.22-2.47-.66-3.54c-.44-1.07-1.06-2-1.85-2.8-.79-.8-1.72-1.42-2.8-1.85-1.08-.43-2.25-.65-3.52-.65s-2.44.22-3.5.65c-1.06.43-2,1.05-2.8,1.85s-1.42,1.74-1.87,2.8c-.44,1.07-.66,2.24-.66,3.54s.22,2.44.66,3.52,1.06,2.02,1.85,2.82c.79.8,1.72,1.42,2.8,1.85,1.08.43,2.25.65,3.52.65Z"/>
          <path class="cls-3" d="M371.66,128.83v-21.18h-8.33v-3.95h21.33v3.95h-8.33v21.18h-4.67Z"/>
          <path class="cls-3" d="M404.97,129.19c-1.96,0-3.77-.32-5.42-.97-1.65-.65-3.09-1.55-4.31-2.71-1.22-1.16-2.17-2.52-2.84-4.09-.67-1.57-1-3.28-1-5.15s.34-3.58,1-5.15c.67-1.57,1.62-2.93,2.84-4.09,1.22-1.16,2.66-2.06,4.31-2.71,1.65-.65,3.45-.97,5.39-.97s3.76.32,5.4.97c1.64.65,3.07,1.55,4.29,2.71,1.22,1.16,2.17,2.53,2.84,4.09.67,1.57,1,3.28,1,5.15s-.34,3.59-1,5.17c-.67,1.58-1.62,2.94-2.84,4.09-1.22,1.15-2.65,2.05-4.29,2.69s-3.43.97-5.37.97ZM404.94,125.09c1.27,0,2.44-.21,3.52-.65,1.08-.43,2.01-1.05,2.8-1.85.79-.8,1.41-1.74,1.85-2.8.44-1.07.66-2.24.66-3.54s-.22-2.47-.66-3.54c-.44-1.07-1.06-2-1.85-2.8-.79-.8-1.72-1.42-2.8-1.85-1.08-.43-2.25-.65-3.52-.65s-2.44.22-3.5.65c-1.06.43-2,1.05-2.8,1.85-.8.8-1.42,1.74-1.87,2.8-.44,1.07-.66,2.24-.66,3.54s.22,2.44.66,3.52c.44,1.08,1.06,2.02,1.85,2.82.79.8,1.72,1.42,2.8,1.85,1.08.43,2.25.65,3.52.65Z"/>
          <path class="cls-3" d="M428.82,128.83v-25.13h10.34c2.23,0,4.13.36,5.73,1.08,1.59.72,2.82,1.75,3.68,3.09s1.29,2.93,1.29,4.78-.43,3.43-1.29,4.76c-.86,1.33-2.09,2.35-3.68,3.05-1.59.71-3.5,1.06-5.73,1.06h-7.75l2.08-2.12v9.44h-4.67ZM433.48,119.89l-2.08-2.23h7.54c2.06,0,3.61-.44,4.65-1.33,1.04-.89,1.56-2.12,1.56-3.7s-.52-2.84-1.56-3.7c-1.04-.86-2.59-1.29-4.65-1.29h-7.54l2.08-2.3v14.54ZM445.26,128.83l-6.36-9.12h4.99l6.39,9.12h-5.03Z"/>
        </g>
      </g>
    </g>
  </g>
</svg>